<svg width="40" height="40" viewBox="0 0 40 40" fill="none" xmlns="http://www.w3.org/2000/svg">
<path d="M21.5875 5.745C22.2375 4.44583 23.5958 3.395 25.2642 3.58083C26.7567 3.74666 28.9725 4.30166 30.4833 6.12167C32.0342 7.99083 32.6125 10.9058 31.4217 15.2733C30.15 19.9325 28.2617 24.5258 25.9142 28.2317C23.5842 31.9108 20.7142 34.8558 17.4217 35.985C14.51 36.9833 12.2833 36.5667 10.6592 35.47C9.09249 34.4125 8.23249 32.8217 7.78749 31.72C7.28916 30.4867 7.61749 29.2025 8.26749 28.2558L10.665 24.7692C11.1946 23.9987 11.9571 23.4182 12.8408 23.1127C13.7244 22.8072 14.6826 22.7928 15.575 23.0717L18.8883 24.1075C18.993 24.1434 19.1059 24.1477 19.213 24.12C19.3201 24.0923 19.4167 24.0338 19.4908 23.9517C20.9658 22.2242 22.6183 19.815 23.0675 17.3767C23.0817 17.3115 23.0719 17.2435 23.04 17.185C22.5525 16.3658 21.7142 15.4375 20.8792 14.625C19.465 13.2483 18.9292 11.06 19.8625 9.195L21.5875 5.745Z" fill="#414141"/>
</svg>
