<svg width="40" height="40" viewBox="0 0 40 40" fill="none" xmlns="http://www.w3.org/2000/svg">
<path d="M7.71 14.7966C8.37603 13.2133 9.34405 11.7749 10.56 10.5616C11.7733 9.34496 13.2124 8.37685 14.7967 7.71165C18.0625 6.35487 21.7297 6.33034 25.0133 7.64331C25.0463 8.72244 25.4985 9.74624 26.2739 10.4974C27.0494 11.2486 28.087 11.668 29.1667 11.6666C31.4767 11.6666 33.3333 9.80998 33.3333 7.49998C33.3333 5.18998 31.4767 3.33331 29.1667 3.33331C28.0183 3.33331 26.98 3.79331 26.2283 4.54165C22.1767 2.91998 17.5233 2.94498 13.5033 4.63998C11.52 5.47331 9.73667 6.67331 8.20333 8.20498C6.65512 9.75365 5.42795 11.5928 4.59223 13.6169C3.75651 15.641 3.3287 17.8102 3.33334 20H6.66667C6.66667 18.19 7.01833 16.44 7.71 14.7966ZM32.2883 25.2033C31.62 26.79 30.66 28.2166 29.4383 29.4383C28.2167 30.66 26.79 31.62 25.2017 32.2883C21.9358 33.6451 18.2687 33.6696 14.985 32.3566C14.9529 31.2775 14.5012 30.2535 13.7259 29.5022C12.9506 28.7509 11.9129 28.3315 10.8333 28.3333C8.52333 28.3333 6.66667 30.19 6.66667 32.5C6.66667 34.81 8.52333 36.6666 10.8333 36.6666C11.9817 36.6666 13.02 36.2066 13.7717 35.4583C15.7509 36.2573 17.8656 36.6675 20 36.6666C23.2776 36.673 26.484 35.7111 29.2169 33.9018C31.9498 32.0925 34.0875 29.5164 35.3617 26.4966C36.2275 24.4404 36.6713 22.2311 36.6667 20H33.3333C33.3375 21.787 32.9821 23.5565 32.2883 25.2033Z" fill="#857045"/>
<path d="M20 12.4366C15.83 12.4366 12.4367 15.83 12.4367 20C12.4367 24.17 15.83 27.5633 20 27.5633C24.17 27.5633 27.5633 24.17 27.5633 20C27.5633 15.83 24.17 12.4366 20 12.4366Z" fill="#857045"/>
</svg>
