<svg width="40" height="40" viewBox="0 0 40 40" fill="none" xmlns="http://www.w3.org/2000/svg">
<g clip-path="url(#clip0_0_63)">
<path d="M34.4445 8.88892H24.4445V36.6667H36.6667V11.1111C36.6667 10.5218 36.4326 9.95654 36.0158 9.53979C35.5991 9.12304 35.0338 8.88892 34.4445 8.88892ZM28.8889 27.7778H26.6667V25.5556H28.8889V27.7778ZM28.8889 22.2222H26.6667V20H28.8889V22.2222ZM28.8889 16.6667H26.6667V14.4445H28.8889V16.6667ZM33.3333 27.7778H31.1111V25.5556H33.3333V27.7778ZM33.3333 22.2222H31.1111V20H33.3333V22.2222ZM33.3333 16.6667H31.1111V14.4445H33.3333V16.6667Z" fill="#857045"/>
<path d="M19.8667 3.33331H6.80001C6.17528 3.33331 5.57614 3.58149 5.13438 4.02324C4.69263 4.46499 4.44446 5.06414 4.44446 5.68887V36.6666H10V33.3333H16.6667V36.6666H22.2222V5.68887C22.2222 5.06414 21.9741 4.46499 21.5323 4.02324C21.0906 3.58149 20.4914 3.33331 19.8667 3.33331ZM10 27.7778H7.77779V25.5555H10V27.7778ZM10 22.2222H7.77779V20H10V22.2222ZM10 16.6666H7.77779V14.4444H10V16.6666ZM10 11.1111H7.77779V8.88887H10V11.1111ZM14.4445 27.7778H12.2222V25.5555H14.4445V27.7778ZM14.4445 22.2222H12.2222V20H14.4445V22.2222ZM14.4445 16.6666H12.2222V14.4444H14.4445V16.6666ZM14.4445 11.1111H12.2222V8.88887H14.4445V11.1111ZM18.8889 27.7778H16.6667V25.5555H18.8889V27.7778ZM18.8889 22.2222H16.6667V20H18.8889V22.2222ZM18.8889 16.6666H16.6667V14.4444H18.8889V16.6666ZM18.8889 11.1111H16.6667V8.88887H18.8889V11.1111Z" fill="#857045"/>
</g>
<defs>
<clipPath id="clip0_0_63">
<rect width="40" height="40" fill="white"/>
</clipPath>
</defs>
</svg>
