<svg width="40" height="40" viewBox="0 0 40 40" fill="none" xmlns="http://www.w3.org/2000/svg">
<path d="M21.6667 31.6667L15 28.3334M15 28.3334L5 33.3334V11.6667L15 6.66669M15 28.3334V6.66669M15 6.66669L25 11.6667M25 11.6667L35 6.66669V17.5M25 11.6667V20M35 25H30.8333C30.1703 25 29.5344 25.2634 29.0656 25.7323C28.5967 26.2011 28.3333 26.837 28.3333 27.5C28.3333 28.1631 28.5967 28.7989 29.0656 29.2678C29.5344 29.7366 30.1703 30 30.8333 30H32.5C33.163 30 33.7989 30.2634 34.2678 30.7323C34.7366 31.2011 35 31.837 35 32.5C35 33.1631 34.7366 33.7989 34.2678 34.2678C33.7989 34.7366 33.163 35 32.5 35H28.3333M31.6667 35V36.6667M31.6667 23.3334V25" stroke="#857045" stroke-width="4.16667" stroke-linecap="round" stroke-linejoin="round"/>
</svg>
