<svg width="50" height="50" viewBox="0 0 50 50" fill="none" xmlns="http://www.w3.org/2000/svg">
<path d="M33.3333 33.3333L31.0292 29.1875M28.1125 23.9333L22.9167 14.5833M35.4167 29.1667H25M18.9583 29.1667H14.5833M16.6667 33.3333L21.8958 23.9208M24.9938 18.3438L27.0771 14.5833M43.75 25C43.75 27.4623 43.265 29.9005 42.3227 32.1753C41.3805 34.4502 39.9994 36.5172 38.2583 38.2582C36.5172 39.9993 34.4502 41.3805 32.1753 42.3227C29.9005 43.265 27.4623 43.75 25 43.75C22.5377 43.75 20.0995 43.265 17.8247 42.3227C15.5498 41.3805 13.4828 39.9993 11.7418 38.2582C10.0007 36.5172 8.61953 34.4502 7.67726 32.1753C6.73498 29.9005 6.25 27.4623 6.25 25C6.25 22.5377 6.73498 20.0995 7.67726 17.8247C8.61953 15.5498 10.0007 13.4828 11.7418 11.7417C13.4828 10.0006 15.5498 8.61953 17.8247 7.67726C20.0995 6.73498 22.5377 6.25 25 6.25C27.4623 6.25 29.9005 6.73498 32.1753 7.67726C34.4502 8.61953 36.5172 10.0006 38.2583 11.7417C39.9994 13.4828 41.3805 15.5498 42.3227 17.8247C43.265 20.0995 43.75 22.5377 43.75 25Z" stroke="#DBD2BF" stroke-width="4.16667" stroke-linecap="round" stroke-linejoin="round"/>
</svg>
