<svg width="40" height="40" viewBox="0 0 40 40" fill="none" xmlns="http://www.w3.org/2000/svg">
<path d="M29.1667 31.6667H30.8333V27.5H35V25.8334H30.8333V21.6667H29.1667V25.8334H25V27.5H29.1667V31.6667ZM30 35C27.6944 35 25.7289 34.1872 24.1033 32.5617C22.4778 30.9361 21.6656 28.9711 21.6667 26.6667C21.6667 24.3611 22.4794 22.3956 24.105 20.77C25.7306 19.1445 27.6956 18.3322 30 18.3334C32.3056 18.3334 34.2711 19.1461 35.8967 20.7717C37.5222 22.3972 38.3344 24.3622 38.3333 26.6667C38.3333 28.9722 37.5206 30.9378 35.895 32.5634C34.2694 34.1889 32.3044 35.0011 30 35ZM6.66667 31.6667V11.6667L20 1.66669L33.3333 11.6667V15.5C32.7778 15.3334 32.2222 15.2084 31.6667 15.125C31.1111 15.0417 30.5556 15 30 15C26.75 15 23.9928 16.1322 21.7283 18.3967C19.4639 20.6611 18.3322 23.4178 18.3333 26.6667C18.3333 27.5556 18.4239 28.4167 18.605 29.25C18.7861 30.0834 19.0706 30.8889 19.4583 31.6667H6.66667Z" fill="#857045"/>
</svg>
