<svg width="40" height="40" viewBox="0 0 40 40" fill="none" xmlns="http://www.w3.org/2000/svg">
<path d="M0 0V40H12.2944V11.3655L16.4502 7.20961V0H13.8528V4.15584H9.52381V0H6.92641V4.15584H2.5974V0H0ZM14.4918 11.3721L13.8528 12.0111V12.9131C14.2468 12.8595 14.7131 13.0189 15.0007 13.1816C15.3295 13.4257 15.9782 13.8719 15.821 14.3567C15.4363 14.6647 14.7683 14.4423 14.3934 14.2307C14.1723 14.1028 13.9903 13.9463 13.8528 13.79V15.7081C14.5068 15.9721 15.1261 16.126 15.7449 16.0439C16.0488 16.7301 16.6733 17.3438 17.2096 17.6613C17.9334 18.0029 18.641 18.2186 19.3418 18.1257C19.6454 18.812 20.2704 19.4255 20.8066 19.743C21.5304 20.0845 22.2379 20.3003 22.9386 20.2074C23.2425 20.8936 23.8671 21.5073 24.4034 21.8248C25.1272 22.1664 25.8348 22.3819 26.5356 22.2889C26.8391 22.9753 27.4641 23.5889 28.0003 23.9064C28.7242 24.248 29.4317 24.4637 30.1324 24.3707C30.2436 24.6523 30.422 24.9357 30.5921 25.1456L13.8528 29.2842V32.4951L37.827 26.5675L37.079 23.5418L35.2761 23.9876C35.0068 23.2427 34.3351 22.5786 33.7655 22.2415C33.0417 21.8998 32.3341 21.6843 31.6333 21.7772C31.3298 21.0909 30.705 20.4771 30.1687 20.1597C29.4449 19.818 28.7374 19.6027 28.0365 19.6956C27.7326 19.0094 27.1081 18.3955 26.5718 18.078C25.848 17.7366 25.1403 17.5204 24.4396 17.6139C24.1361 16.9277 23.5113 16.3139 22.975 15.9964C22.2512 15.6548 21.5436 15.4392 20.8428 15.5321C20.5389 14.8459 19.9145 14.232 19.378 13.9145C18.6542 13.573 17.9466 13.3576 17.2458 13.4505C16.9423 12.7642 16.3176 12.1504 15.7812 11.8329C15.3642 11.5915 14.9268 11.4358 14.4918 11.3721ZM18.5974 15.2635C18.9265 15.5076 19.5751 15.9535 19.4179 16.4385C19.0332 16.7462 18.3651 16.5241 17.9904 16.3126C17.6614 16.0684 17.0125 15.6225 17.17 15.1375C17.5437 14.8326 18.2003 15.0387 18.5974 15.2635ZM22.1945 17.3451C22.5233 17.5892 23.1719 18.0354 23.0147 18.5202C22.63 18.8281 21.9621 18.6058 21.5872 18.3942C21.258 18.15 20.6097 17.7043 20.7667 17.2191C21.1407 16.9142 21.7974 17.1203 22.1944 17.3451H22.1945ZM25.7913 19.4269C26.1201 19.671 26.7689 20.117 26.6117 20.6018C26.2269 20.9098 25.559 20.6874 25.1842 20.4758C24.855 20.2317 24.2063 19.7861 24.3636 19.3008C24.7375 18.996 25.3943 19.2022 25.7913 19.4269ZM29.3882 21.5086C29.7172 21.7527 30.3656 22.1986 30.2085 22.6836C29.8237 22.9913 29.1557 22.7692 28.781 22.5577C28.452 22.3135 27.8034 21.8676 27.9604 21.3826C28.3358 21.0819 28.9787 21.2767 29.3882 21.5086ZM32.985 23.5902C33.2863 23.7992 33.5964 24.0565 33.7524 24.3643L32.4611 24.6836C32.107 24.404 31.386 23.9929 31.5574 23.4642C31.9326 23.1636 32.5755 23.3584 32.985 23.5902ZM34.632 32.9004V34.4589H40V32.9004H34.632ZM28.1274 36.0163C26.2266 36.0591 24.4597 37.7186 22.7706 37.7489C20.7736 37.5231 19.0364 36.0456 17.2294 36.0173C16.011 36.1311 14.9197 36.3987 13.8528 36.7737V38.4629C14.955 38.0092 16.13 37.597 17.2294 37.5758C19.2264 37.8016 20.9636 39.279 22.7706 39.3074C24.7417 39.3743 26.5681 37.607 28.3117 37.5758C28.7927 37.5758 29.5483 37.7463 30.3238 37.981C30.8398 37.6216 31.3184 37.2353 31.7477 36.8089C30.6464 36.4043 29.3998 36.0173 28.3117 36.0173C28.2503 36.0152 28.1888 36.0149 28.1274 36.0163ZM34.3145 36.0173C33.289 37.805 31.74 39.0114 30.0594 40H40V36.0173H34.3145Z" fill="#857045"/>
</svg>
