<svg width="24" height="24" viewBox="0 0 24 24" fill="none" xmlns="http://www.w3.org/2000/svg">
<path d="M8 4H16C17.0609 4 18.0783 4.42143 18.8284 5.17157C19.5786 5.92172 20 6.93913 20 8V16C20 17.0609 19.5786 18.0783 18.8284 18.8284C18.0783 19.5786 17.0609 20 16 20H8C6.93913 20 5.92172 19.5786 5.17157 18.8284C4.42143 18.0783 4 17.0609 4 16V8C4 6.93913 4.42143 5.92172 5.17157 5.17157C5.92172 4.42143 6.93913 4 8 4ZM15.5 12C15.5 12.4596 15.4095 12.9148 15.2336 13.3394C15.0577 13.764 14.7999 14.1499 14.4749 14.4749C14.1499 14.7999 13.764 15.0577 13.3394 15.2336C12.9148 15.4095 12.4596 15.5 12 15.5C11.5404 15.5 11.0852 15.4095 10.6606 15.2336C10.236 15.0577 9.85013 14.7999 9.52513 14.4749C9.20012 14.1499 8.94231 13.764 8.76642 13.3394C8.59053 12.9148 8.5 12.4596 8.5 12C8.5 11.0717 8.86875 10.1815 9.52513 9.52513C10.1815 8.86875 11.0717 8.5 12 8.5C12.9283 8.5 13.8185 8.86875 14.4749 9.52513C15.1313 10.1815 15.5 11.0717 15.5 12Z" fill="#F5ECEF" stroke="#333333" stroke-width="3" stroke-linecap="round" stroke-linejoin="round"/>
</svg>
