<svg width="40" height="40" viewBox="0 0 40 40" fill="none" xmlns="http://www.w3.org/2000/svg">
<mask id="mask0_0_19" style="mask-type:luminance" maskUnits="userSpaceOnUse" x="1" y="5" width="38" height="33">
<path fill-rule="evenodd" clip-rule="evenodd" d="M20 34.9967C31.1108 35.0825 36.6667 34.1725 36.6667 32.2675C36.6667 29.4108 23.6783 15.0025 20 15.0025C16.3217 15.0025 3.33334 29.7083 3.33334 32.2667C3.33334 33.9733 8.88917 34.8833 20 34.9967Z" fill="white" stroke="white" stroke-width="4.16667" stroke-linejoin="round"/>
<path d="M17.55 24.7175L14.5333 28.3342" stroke="black" stroke-width="4.16667" stroke-linecap="round"/>
<path d="M20.4167 9.16667C20.9692 9.16667 21.4991 8.94717 21.8898 8.55647C22.2805 8.16577 22.5 7.63587 22.5 7.08333C22.5 6.5308 22.2805 6.00089 21.8898 5.61019C21.4991 5.21949 20.9692 5 20.4167 5C19.8641 5 19.3342 5.21949 18.9435 5.61019C18.5528 6.00089 18.3333 6.5308 18.3333 7.08333C18.3333 7.63587 18.5528 8.16577 18.9435 8.55647C19.3342 8.94717 19.8641 9.16667 20.4167 9.16667ZM28.3333 13.3333C28.7754 13.3333 29.1993 13.1577 29.5118 12.8452C29.8244 12.5326 30 12.1087 30 11.6667C30 11.2246 29.8244 10.8007 29.5118 10.4882C29.1993 10.1756 28.7754 10 28.3333 10C27.8913 10 27.4674 10.1756 27.1548 10.4882C26.8423 10.8007 26.6667 11.2246 26.6667 11.6667C26.6667 12.1087 26.8423 12.5326 27.1548 12.8452C27.4674 13.1577 27.8913 13.3333 28.3333 13.3333ZM10 17.5C10.442 17.5 10.866 17.3244 11.1785 17.0118C11.4911 16.6993 11.6667 16.2754 11.6667 15.8333C11.6667 15.3913 11.4911 14.9674 11.1785 14.6548C10.866 14.3423 10.442 14.1667 10 14.1667C9.55798 14.1667 9.13405 14.3423 8.82149 14.6548C8.50893 14.9674 8.33334 15.3913 8.33334 15.8333C8.33334 16.2754 8.50893 16.6993 8.82149 17.0118C9.13405 17.3244 9.55798 17.5 10 17.5ZM14.5833 12.5C14.9149 12.5 15.2328 12.3683 15.4672 12.1339C15.7016 11.8995 15.8333 11.5815 15.8333 11.25C15.8333 10.9185 15.7016 10.6005 15.4672 10.3661C15.2328 10.1317 14.9149 10 14.5833 10C14.2518 10 13.9339 10.1317 13.6995 10.3661C13.465 10.6005 13.3333 10.9185 13.3333 11.25C13.3333 11.5815 13.465 11.8995 13.6995 12.1339C13.9339 12.3683 14.2518 12.5 14.5833 12.5Z" fill="white"/>
</mask>
<g mask="url(#mask0_0_19)">
<path d="M0 0H40V40H0V0Z" fill="#857045"/>
</g>
</svg>
