<svg width="37" height="37" viewBox="0 0 37 37" fill="none" xmlns="http://www.w3.org/2000/svg">
<path fill-rule="evenodd" clip-rule="evenodd" d="M6.08219 0C2.72309 0 0 2.72309 0 6.08219V30.9178C0 34.0741 2.40419 36.6688 5.48116 36.9707V36.9998H6.03417C6.05016 36.9999 6.06617 37 6.08219 37H30.9178C34.2769 37 37 34.2769 37 30.9178V6.08219C37 2.72309 34.2769 0 30.9178 0H6.08219ZM6.03417 36.9998H16.4441V20.5554H5.48116V36.9707C5.66326 36.9885 5.84772 36.9984 6.03417 36.9998ZM27.4072 16.4446C30.4345 16.4446 32.8886 13.9905 32.8886 10.9632C32.8886 7.93583 30.4345 5.48168 27.4072 5.48168H21.9257V10.9632V16.4446H27.4072ZM10.9627 16.4448C13.99 16.4448 16.4441 13.9906 16.4441 10.9633C16.4441 7.93594 13.99 5.48179 10.9627 5.48179H5.48117V10.9633V16.4448H10.9627ZM27.4072 31.5183C30.4345 31.5183 32.8886 29.0642 32.8886 26.0369C32.8886 23.0095 30.4345 20.5554 27.4072 20.5554H21.9257V26.0369V31.5183H27.4072Z" fill="#BCAC8B"/>
</svg>
